<?xml version="1.0" encoding="UTF-8"?>
<svg version="1.1" xmlns="http://www.w3.org/2000/svg" width="512" height="512">
<path d="M0 0 C2.1198433 0.0056486 4.23967858 0.00846379 6.35952759 0.0110817 C26.90876038 0.04796487 47.20245193 0.45946186 67.58584595 3.31805801 C68.90952917 3.49711854 70.23326122 3.67581845 71.55703735 3.85419083 C122.10618129 10.7519002 161.99715664 22.87437544 199.58584595 58.31805801 C200.36959595 59.04766739 201.15334595 59.77727676 201.96084595 60.52899551 C246.50993772 103.3279444 256.86424001 168.62751994 258.693573 227.80281448 C258.74880884 231.37715725 258.77612174 234.95034434 258.78897095 238.52508926 C258.79598526 239.83704773 258.80299957 241.1490062 258.81022644 242.50072098 C258.82961945 246.71067164 258.83466028 250.92056719 258.83584595 255.13055801 C258.8362878 255.84770981 258.83672966 256.5648616 258.83718491 257.30374527 C258.84412648 278.78346315 258.57147759 300.00284254 255.58584595 321.31805801 C255.40671487 322.64710302 255.2280175 323.97620653 255.04971313 325.3053627 C250.9857077 355.22728298 246.12543491 385.54904319 231.58584595 412.31805801 C231.04186157 413.34415176 230.4978772 414.37024551 229.93740845 415.42743301 C222.46200588 428.91962301 212.63390769 440.87577656 201.93496704 451.92206192 C200.71835257 453.18094747 199.52005797 454.45747556 198.3241272 455.73602676 C155.64998043 500.30329649 90.15425688 510.60022749 31.10108948 512.42578506 C27.52674671 512.4810209 23.95355962 512.5083338 20.3788147 512.52118301 C19.06685623 512.52819733 17.75489777 512.53521164 16.40318298 512.54243851 C12.19323232 512.56183151 7.98333677 512.56687235 3.77334595 512.56805801 C3.05619415 512.56849987 2.33904236 512.56894173 1.60015869 512.56939697 C-19.88157172 512.5763392 -41.09596572 512.29262146 -62.41415405 509.31805801 C-63.70869507 509.14645157 -65.00323608 508.97484512 -66.33700562 508.79803848 C-123.55513301 501.15002596 -173.89688934 484.10638108 -210.45516968 436.68744278 C-244.94494478 390.8799212 -253.42992924 330.99491276 -253.61727905 274.73602676 C-253.62010643 274.05974039 -253.62293381 273.38345402 -253.62584686 272.68667412 C-253.64072652 269.09008418 -253.65002013 265.49353301 -253.65438843 261.89691544 C-253.65872089 259.0032288 -253.67242259 256.10984913 -253.69540405 253.21625137 C-253.89940006 226.96088532 -252.39703755 201.01326641 -248.10165405 175.06805801 C-247.8921814 173.77069717 -247.68270874 172.47333633 -247.46688843 171.13666153 C-240.11690294 126.37718679 -226.73378692 92.53311535 -195.41415405 59.31805801 C-194.68454468 58.53430801 -193.9549353 57.75055801 -193.20321655 56.94305801 C-170.22376058 33.02392169 -140.64811341 18.17551202 -108.53915405 11.25555801 C-107.77734833 11.08852371 -107.0155426 10.92148941 -106.23065186 10.74939346 C-94.6253594 8.21783618 -82.98357064 6.13098144 -71.22665405 4.44305801 C-70.55853699 4.34564316 -69.89041992 4.2482283 -69.20205688 4.14786148 C-46.21087322 0.84801317 -23.20467134 -0.06283861 0 0 Z " fill="#F1EDFE" transform="translate(253.41415405273438,-0.3180580139160156)"/>
<path d="M0 0 C1.89588867 -0.03673828 1.89588867 -0.03673828 3.83007812 -0.07421875 C24.91669723 -0.13900099 44.22407384 8.74398126 59.4375 23.0625 C75.95925152 40.44252433 82.76408929 62.71931267 82.60717773 86.37426758 C81.89051825 111.74770028 71.47027076 132.34125884 55.1875 151.375 C54.71038574 151.93703125 54.23327148 152.4990625 53.74169922 153.078125 C47.02540127 160.98217886 40.1197645 168.67775071 33.00830078 176.22802734 C30.06691007 179.35195852 27.16866296 182.49180186 24.375 185.75 C21.29948966 189.32905738 17.97963278 192.62143834 14.59375 195.90625 C12.75419761 197.79358297 11.06762611 199.68272304 9.36889648 201.68920898 C3.84233071 208.02159259 -2.17553062 213.88182001 -8.12109375 219.81640625 C-9.41486434 221.1108519 -10.70848657 222.40544584 -12.00196838 223.70018005 C-14.70257239 226.40225151 -17.40495893 229.10252381 -20.10864258 231.80151367 C-23.55594549 235.2431199 -26.9987385 238.68919705 -30.44019985 242.13664341 C-33.10740212 244.80747711 -35.77700368 247.47590244 -38.44731331 250.14362907 C-39.7169722 251.41262583 -40.98590243 252.6823521 -42.25405693 253.95285225 C-54.203976 265.92002591 -54.203976 265.92002591 -60.31532288 271.0980072 C-62.25755396 272.75460151 -64.0401315 274.53933262 -65.8125 276.375 C-68.27216351 278.92250863 -70.83357514 281.26730786 -73.51953125 283.5703125 C-78.89135306 288.23292963 -83.7676639 293.37203804 -88.66210938 298.52734375 C-99.01253219 309.12312339 -109.33381557 315.31096395 -123.4375 319.625 C-124.77226934 320.04788079 -126.10665652 320.47196961 -127.44067383 320.8972168 C-131.22100132 322.09219899 -135.01394582 323.23928452 -138.8125 324.375 C-139.73434082 324.65359863 -140.65618164 324.93219727 -141.60595703 325.21923828 C-220.44043468 348.65565887 -220.44043468 348.65565887 -244.375 337.6875 C-250.0567162 334.23485796 -255.39694661 328.89613319 -257.4206543 322.43261719 C-264.11770562 287.26579564 -248.52238867 238.35355359 -237.6875 205.4375 C-237.36289795 204.44862793 -237.0382959 203.45975586 -236.70385742 202.44091797 C-231.10672189 185.89249441 -221.04328906 175.35151554 -208.72827148 163.27612305 C-207.93880127 162.50051025 -207.14933105 161.72489746 -206.3359375 160.92578125 C-205.63388184 160.24169189 -204.93182617 159.55760254 -204.20849609 158.8527832 C-202.3066494 156.88601714 -200.53130137 154.89710455 -198.75526428 152.82073975 C-194.48481958 147.92829911 -189.92812242 143.35040958 -185.33227539 138.76538086 C-183.94550346 137.37598045 -183.94550346 137.37598045 -182.53071594 135.95851135 C-180.0164655 133.4397388 -177.49910652 130.92409548 -174.98100209 128.40917659 C-172.3327061 125.76343138 -169.68687244 123.11522548 -167.04063416 120.46742249 C-162.59830215 116.02327668 -158.15387858 111.58123077 -153.70825195 107.14038086 C-148.58551715 102.02308715 -143.46639447 96.90220125 -138.3491326 91.7794351 C-133.93716391 87.36291276 -129.52322989 82.94836171 -125.10767931 78.53542048 C-122.478484 75.90777558 -119.84994841 73.27948029 -117.22319221 70.6493969 C-114.29237222 67.71512331 -111.35744166 64.78499406 -108.42211914 61.85522461 C-107.56420776 60.995289 -106.70629639 60.13535339 -105.8223877 59.24935913 C-101.51306153 54.9550601 -97.13967967 50.80310504 -92.51953793 46.84380436 C-89.94770032 44.63089143 -87.48264293 42.31250376 -85 40 C-80.36739309 35.7264531 -75.63139946 31.62949184 -70.70703125 27.69140625 C-68.63717298 26.03496097 -66.60033427 24.36021496 -64.57421875 22.65234375 C-45.68798875 6.96162057 -24.49621257 0.02475615 0 0 Z " fill="#7C42FE" transform="translate(343.8125,86.625)"/>
</svg>
