<?xml version="1.0" encoding="UTF-8"?>
<svg version="1.1" xmlns="http://www.w3.org/2000/svg" width="512" height="512">
<path d="M0 0 C2.1198433 0.0056486 4.23967858 0.00846379 6.35952759 0.0110817 C26.90876038 0.04796487 47.20245193 0.45946186 67.58584595 3.31805801 C68.90952917 3.49711854 70.23326122 3.67581845 71.55703735 3.85419083 C122.10618129 10.7519002 161.99715664 22.87437544 199.58584595 58.31805801 C200.36959595 59.04766739 201.15334595 59.77727676 201.96084595 60.52899551 C246.20161285 103.03173229 256.87271381 167.97321338 258.693573 226.79831314 C258.74930531 230.49916141 258.77664528 234.19884115 258.78897095 237.90008926 C258.79179832 238.57637564 258.7946257 239.25266201 258.79753876 239.94944191 C258.81241841 243.54603185 258.82171203 247.14258302 258.82608032 250.73920059 C258.83041279 253.63288723 258.84411448 256.52626689 258.86709595 259.41986465 C259.07109196 285.67523071 257.56872945 311.62284962 253.27334595 337.56805801 C253.06387329 338.86541885 252.85440063 340.16277969 252.63858032 341.4994545 C245.28859483 386.25892924 231.90547881 420.10300068 200.58584595 453.31805801 C199.85623657 454.10180801 199.1266272 454.88555801 198.37490845 455.69305801 C155.57595956 500.24214979 90.27638402 510.59645208 31.10108948 512.42578506 C27.52674671 512.4810209 23.95355962 512.5083338 20.3788147 512.52118301 C19.06685623 512.52819733 17.75489777 512.53521164 16.40318298 512.54243851 C12.19323232 512.56183151 7.98333677 512.56687235 3.77334595 512.56805801 C3.05619415 512.56849987 2.33904236 512.56894173 1.60015869 512.56939697 C-19.88157172 512.5763392 -41.09596572 512.29262146 -62.41415405 509.31805801 C-63.70869507 509.14645157 -65.00323608 508.97484512 -66.33700562 508.79803848 C-123.55513301 501.15002596 -173.89688934 484.10638108 -210.45516968 436.68744278 C-245.09649875 390.67863511 -253.41426233 330.59176764 -253.61727905 274.11102676 C-253.62780052 272.14308907 -253.62780052 272.14308907 -253.63853455 270.13539505 C-253.65792755 265.92544439 -253.66296839 261.71554884 -253.66415405 257.50555801 C-253.66459591 256.78840622 -253.66503777 256.07125443 -253.66549301 255.33237076 C-253.67243459 233.85265288 -253.3997857 212.63327349 -250.41415405 191.31805801 C-250.23502298 189.98901301 -250.05632561 188.65990949 -249.87802124 187.33075333 C-245.81401581 157.40883305 -240.95374301 127.08707284 -226.41415405 100.31805801 C-225.59817749 98.77891739 -225.59817749 98.77891739 -224.76571655 97.20868301 C-217.29031399 83.71649302 -207.4622158 71.76033947 -196.76327515 60.71405411 C-195.54666068 59.45516856 -194.34836607 58.17864047 -193.1524353 56.90008926 C-170.24546708 32.97691543 -140.58720361 18.16238506 -108.53915405 11.25555801 C-107.77734833 11.08852371 -107.0155426 10.92148941 -106.23065186 10.74939346 C-94.6253594 8.21783618 -82.98357064 6.13098144 -71.22665405 4.44305801 C-70.55853699 4.34564316 -69.89041992 4.2482283 -69.20205688 4.14786148 C-46.21087322 0.84801317 -23.20467134 -0.06283861 0 0 Z " fill="#DEF7FE" transform="translate(253.41415405273438,-0.3180580139160156)"/>
<path d="M0 0 C3.30774503 0.0053709 6.61535469 0.00001103 9.9230957 -0.00634766 C19.77271017 -0.01001765 29.60580242 0.06741949 39.44458008 0.56005859 C40.20057999 0.59670624 40.9565799 0.63335388 41.73548889 0.67111206 C50.55298113 1.17780299 59.31435512 2.63505483 65.74536133 9.13037109 C72.10308723 16.95979281 74.15258955 24.15327966 73.74536133 34.13037109 C74.40020508 34.14455078 75.05504883 34.15873047 75.72973633 34.17333984 C89.14110766 34.87421659 100.6627583 40.85137006 109.99926758 50.44677734 C117.7167016 59.57004375 122.30619817 69.28761886 123.74536133 81.13037109 C123.90902695 82.20889343 124.07269257 83.28741577 124.24131775 84.39862061 C124.69882476 87.78583171 124.97107264 91.09422211 125.13427734 94.50634766 C125.19423889 95.73911942 125.25420044 96.97189117 125.315979 98.24201965 C125.37738649 99.5849976 125.43847273 100.92799027 125.49926758 102.27099609 C125.54769428 103.31188416 125.54769428 103.31188416 125.5970993 104.37380028 C125.84529921 109.70884799 126.07946781 115.04444174 126.30786133 120.38037109 C126.35878244 121.56555265 126.35878244 121.56555265 126.41073227 122.77467728 C128.41839312 169.78866268 128.47167327 216.69754056 125.87817383 263.69683838 C125.75287844 265.99263459 125.6345664 268.28866721 125.51879883 270.58496094 C124.61265327 288.26983016 123.41122458 302.38853722 112.74536133 317.13037109 C111.63161133 318.70818359 111.63161133 318.70818359 110.49536133 320.31787109 C95.60299758 335.54869765 78.57916154 337.30306806 58.37036133 338.75537109 C57.46441223 338.82074066 56.55846313 338.88611023 55.62506104 338.95346069 C20.3773093 341.40217926 -15.2235656 340.9419098 -50.50463867 339.31787109 C-51.71038544 339.26573959 -51.71038544 339.26573959 -52.94049072 339.21255493 C-61.17949203 338.838718 -69.284513 338.12468059 -77.42260742 336.75927734 C-78.10611267 336.64819138 -78.78961792 336.53710541 -79.49383545 336.4226532 C-92.78259052 333.99941808 -103.32165752 325.65188563 -111.00463867 314.88037109 C-114.82774317 309.30756018 -117.4309503 303.63268858 -119.25463867 297.13037109 C-119.42286133 296.53909424 -119.59108398 295.94781738 -119.7644043 295.33862305 C-120.84925154 290.45194808 -120.91025276 285.36320469 -121.25463867 280.38037109 C-121.33713867 279.26404297 -121.41963867 278.14771484 -121.50463867 276.99755859 C-121.783964 273.04335945 -122.02627359 269.08775966 -122.25463867 265.13037109 C-122.30020905 264.3751416 -122.34577942 263.61991211 -122.39273071 262.84179688 C-123.69241644 240.46563032 -123.45199693 218.03479856 -123.44213867 195.63037109 C-123.44219476 193.5132548 -123.44225582 191.39613851 -123.44232178 189.27902222 C-123.43137491 142.10578505 -123.43137491 142.10578505 -122.37963867 118.69287109 C-122.34043304 117.80744629 -122.30122742 116.92202148 -122.26083374 116.00976562 C-121.80961771 106.27064283 -121.09217323 96.55377745 -120.29370117 86.83740234 C-120.21741486 85.87322891 -120.14112854 84.90905548 -120.06253052 83.91566467 C-118.63155918 67.33143216 -111.37026041 55.44147194 -98.94604492 44.48583984 C-90.88447007 38.02540919 -81.43490541 35.04398478 -71.25463867 34.13037109 C-71.19147461 33.24736328 -71.12831055 32.36435547 -71.06323242 31.45458984 C-70.04972813 21.5222478 -67.5937824 14.12764875 -60.18041992 7.18896484 C-45.15723783 -4.00424982 -17.68807919 -0.03406845 0 0 Z " fill="#2EBCED" transform="translate(254.254638671875,85.86962890625)"/>
<path d="M0 0 C3.30774503 0.0053709 6.61535469 0.00001103 9.9230957 -0.00634766 C19.77271017 -0.01001765 29.60580242 0.06741949 39.44458008 0.56005859 C40.20057999 0.59670624 40.9565799 0.63335388 41.73548889 0.67111206 C50.55298113 1.17780299 59.31435512 2.63505483 65.74536133 9.13037109 C77.16483038 23.19323576 75.96904435 43.35750218 74.54321289 60.57080078 C73.57142649 68.74480788 71.68459676 75.29253724 65.74536133 81.13037109 C65.2580957 81.61892578 64.77083008 82.10748047 64.26879883 82.61083984 C57.7346708 88.56842716 50.81546748 89.6834826 42.34692383 90.30615234 C41.34400299 90.38593826 40.34108215 90.46572418 39.30776978 90.54792786 C28.95062017 91.30287411 18.60898341 91.39907724 8.22875977 91.33618164 C5.11441839 91.31783609 2.00037648 91.31567389 -1.11401367 91.31591797 C-51.67730584 91.22763712 -51.67730584 91.22763712 -62.81323242 80.64990234 C-67.87355631 75.04900973 -69.69084225 68.64820453 -70.44213867 61.31787109 C-70.52109375 60.58721436 -70.60004883 59.85655762 -70.68139648 59.10375977 C-72.21480361 43.51246112 -73.76937966 24.73850848 -64.29760742 11.47802734 C-57.57607824 3.75405213 -50.22214569 1.72402338 -40.29069519 0.98403931 C-26.86341005 0.12660578 -13.45100935 -0.02590757 0 0 Z " fill="#484965" transform="translate(254.254638671875,85.86962890625)"/>
<path d="M0 0 C1.38015903 -0.0067789 2.760309 -0.01568358 4.14044189 -0.02655029 C7.88239099 -0.04932078 11.62364987 -0.04051665 15.36561084 -0.02465487 C19.28526825 -0.01198138 23.20486721 -0.02374022 27.12452698 -0.03158569 C33.70763743 -0.04067917 40.29046732 -0.02870361 46.87353516 -0.00488281 C54.47806346 0.02231686 62.08192125 0.01352198 69.68643326 -0.01401484 C76.22081462 -0.03672722 82.75499445 -0.03989533 89.28940254 -0.02682149 C93.18972989 -0.01903712 97.08974241 -0.01795691 100.99004936 -0.03450394 C104.65849961 -0.04898037 108.32608834 -0.03887069 111.9944458 -0.01003265 C113.97802048 -0.00029952 115.96166827 -0.01509587 117.94520569 -0.03067017 C127.66675458 0.08476122 127.66675458 0.08476122 131.38319397 3.0585022 C134.1472166 6.30906042 134.41636033 7.6335456 134.12329102 11.71337891 C133.22288301 14.94310328 131.12589765 16.60123896 128.58422852 18.64697266 C128.25422852 18.97697266 127.92422852 19.30697266 127.58422852 19.64697266 C125.78842706 19.75429089 123.988386 19.79108037 122.18940735 19.8008728 C121.01872208 19.80947327 119.8480368 19.81807373 118.64187622 19.82693481 C116.69775345 19.83332474 116.69775345 19.83332474 114.71435547 19.83984375 C113.34464813 19.84774174 111.97494289 19.8560105 110.60523987 19.86462402 C106.09435017 19.89088657 101.583451 19.90615915 97.07250977 19.92041016 C95.52084026 19.92576872 93.96917082 19.93114623 92.41750145 19.93654251 C85.96226589 19.9581804 79.50703288 19.97691639 73.05177021 19.9881649 C63.79640687 20.00439733 54.54146386 20.03754705 45.286259 20.09456575 C38.78174021 20.13327251 32.2773338 20.15279863 25.77270287 20.15808547 C21.88676869 20.16173894 18.00128237 20.17375813 14.11547279 20.2061882 C10.45703593 20.23628114 6.79931756 20.2425769 3.14078331 20.23080444 C1.16186166 20.23047875 -0.81701571 20.25493832 -2.79577637 20.28018188 C-12.49828289 20.21205968 -12.49828289 20.21205968 -16.21296692 17.25308228 C-18.46691132 14.58646978 -19.21806664 13.57874374 -19.10327148 10.14697266 C-19.10713867 9.41478516 -19.11100586 8.68259766 -19.11499023 7.92822266 C-16.27827766 -1.32675021 -8.13460991 -0.063771 0 0 Z " fill="#F3FAFC" transform="translate(198.415771484375,224.35302734375)"/>
<path d="M0 0 C1.3719247 -0.00350285 2.74384534 -0.00916329 4.11575317 -0.01681519 C7.83495292 -0.03104976 11.55341214 -0.01401553 15.27254105 0.00946999 C19.16728675 0.02959501 23.06200219 0.02369857 26.95678711 0.0213623 C33.4970316 0.02141586 40.03698703 0.041162 46.57714844 0.07324219 C54.13498876 0.11013435 61.69245046 0.11891758 69.25036907 0.11194468 C76.52529188 0.10563608 83.80008505 0.11640054 91.07498169 0.13591003 C94.1689743 0.1440778 97.26290059 0.14679473 100.35690308 0.1452179 C104.00138082 0.14433795 107.64549963 0.15858431 111.28988266 0.18444443 C113.26289859 0.19500519 115.23597585 0.19093771 117.20901489 0.18643188 C118.38664398 0.19778168 119.56427307 0.20913147 120.77758789 0.2208252 C122.30954552 0.22641827 122.30954552 0.22641827 123.87245178 0.23212433 C128.07741497 0.81000612 130.69994656 2.65502469 133.66015625 5.61523438 C134.4405917 12.41617187 134.4405917 12.41617187 131.97045898 16.21128845 C127.53296737 20.44618085 120.84754498 19.29762321 115.13671875 19.24633789 C113.74508757 19.25147865 112.3534629 19.25876112 110.96185303 19.26802063 C107.18896082 19.28652358 103.41677596 19.27360376 99.64391327 19.25393033 C95.69310191 19.23753302 91.74233497 19.24635822 87.79150391 19.25144958 C81.15711176 19.25596936 74.52300165 19.24010815 67.88867188 19.2121582 C60.221711 19.18010663 52.55525879 19.18012229 44.8882618 19.19737297 C37.50867468 19.21324445 30.12927381 19.20650057 22.74969482 19.18943596 C19.61101312 19.18256871 16.47248085 19.1835945 13.33380127 19.19098091 C9.63671963 19.19865006 5.94021587 19.18649798 2.24323273 19.159132 C0.24158524 19.14897588 -1.76013168 19.15842417 -3.76177979 19.16845703 C-4.95623718 19.15573257 -6.15069458 19.14300812 -7.38134766 19.12989807 C-8.93542831 19.12568769 -8.93542831 19.12568769 -10.52090454 19.12139225 C-14.07623102 18.48301151 -15.77158197 17.10678357 -18.33984375 14.61523438 C-19.00390625 12.43164062 -19.00390625 12.43164062 -18.96484375 10.17773438 C-18.97773438 9.43652344 -18.990625 8.6953125 -19.00390625 7.93164062 C-16.33761757 -1.36900166 -8.05245401 -0.08322607 0 0 Z " fill="#E8F5F8" transform="translate(198.33984375,273.384765625)"/>
<path d="M0 0 C1.42282288 -0.01073296 1.42282288 -0.01073296 2.87438965 -0.02168274 C6.00529352 -0.03857133 9.13476587 -0.01916563 12.265625 0.00219727 C14.4436861 0.00136859 16.62174714 -0.00109076 18.79980469 -0.00511169 C23.36282188 -0.00796982 27.92534825 0.00673346 32.48828125 0.03417969 C38.33619571 0.068262 44.18323249 0.06224412 50.03118896 0.04351711 C54.52823191 0.0329468 59.02507076 0.04188533 63.52209473 0.05690193 C65.67825718 0.06208394 67.83444095 0.06160172 69.99060059 0.05535698 C73.00461636 0.04990457 76.01737722 0.07028155 79.03125 0.09765625 C79.92179077 0.09113037 80.81233154 0.08460449 81.7298584 0.07788086 C85.79195979 0.1405912 87.99576522 0.31913058 91.54589844 2.44960022 C94.28259938 5.48053976 94.515625 7.58881846 94.515625 11.63110352 C93.15134107 14.55456909 91.78811591 16.3586126 89.515625 18.63110352 C86.40847234 18.84592795 83.38944841 18.93523054 80.2800293 18.9375 C78.84323318 18.94998528 78.84323318 18.94998528 77.37741089 18.96272278 C74.19818096 18.98689702 71.01915595 18.99560444 67.83984375 19.00219727 C65.63507524 19.01115871 63.43030737 19.02028046 61.22554016 19.02955627 C56.59769206 19.04606956 51.96991649 19.05375051 47.34204102 19.05664062 C41.40995245 19.06202346 35.47854517 19.09968998 29.54664898 19.14538479 C24.99045826 19.17512021 20.43443217 19.18236344 15.87815285 19.18336678 C13.69125057 19.18757689 11.50434814 19.20004271 9.31754112 19.22088432 C6.25765254 19.24772197 3.19935024 19.24299522 0.1394043 19.23046875 C-0.76520035 19.24530304 -1.66980499 19.26013733 -2.6018219 19.27542114 C-7.09451184 19.22301273 -8.90291325 19.08878004 -12.5443573 16.22254944 C-14.41842598 13.71919721 -15.17109892 12.69260977 -15.109375 9.63110352 C-15.12226563 8.99172852 -15.13515625 8.35235352 -15.1484375 7.69360352 C-12.70083756 0.09164606 -6.7799966 -0.08901678 0 0 Z " fill="#DBF0F5" transform="translate(194.484375,322.368896484375)"/>
</svg>
