<?xml version="1.0" encoding="UTF-8"?>
<svg version="1.1" xmlns="http://www.w3.org/2000/svg" width="512" height="512">
<path d="M0 0 C2.1198433 0.0056486 4.23967858 0.00846379 6.35952759 0.0110817 C26.90876038 0.04796487 47.20245193 0.45946186 67.58584595 3.31805801 C68.90952917 3.49711854 70.23326122 3.67581845 71.55703735 3.85419083 C122.10618129 10.7519002 161.99715664 22.87437544 199.58584595 58.31805801 C200.36959595 59.04766739 201.15334595 59.77727676 201.96084595 60.52899551 C246.20161285 103.03173229 256.87271381 167.97321338 258.693573 226.79831314 C258.74930531 230.49916141 258.77664528 234.19884115 258.78897095 237.90008926 C258.79179832 238.57637564 258.7946257 239.25266201 258.79753876 239.94944191 C258.81241841 243.54603185 258.82171203 247.14258302 258.82608032 250.73920059 C258.83041279 253.63288723 258.84411448 256.52626689 258.86709595 259.41986465 C259.07109196 285.67523071 257.56872945 311.62284962 253.27334595 337.56805801 C253.06387329 338.86541885 252.85440063 340.16277969 252.63858032 341.4994545 C245.28859483 386.25892924 231.90547881 420.10300068 200.58584595 453.31805801 C199.85623657 454.10180801 199.1266272 454.88555801 198.37490845 455.69305801 C155.57595956 500.24214979 90.27638402 510.59645208 31.10108948 512.42578506 C27.52674671 512.4810209 23.95355962 512.5083338 20.3788147 512.52118301 C19.06685623 512.52819733 17.75489777 512.53521164 16.40318298 512.54243851 C12.19323232 512.56183151 7.98333677 512.56687235 3.77334595 512.56805801 C3.05619415 512.56849987 2.33904236 512.56894173 1.60015869 512.56939697 C-19.88157172 512.5763392 -41.09596572 512.29262146 -62.41415405 509.31805801 C-63.70869507 509.14645157 -65.00323608 508.97484512 -66.33700562 508.79803848 C-123.55513301 501.15002596 -173.89688934 484.10638108 -210.45516968 436.68744278 C-245.09649875 390.67863511 -253.41426233 330.59176764 -253.61727905 274.11102676 C-253.62780052 272.14308907 -253.62780052 272.14308907 -253.63853455 270.13539505 C-253.65792755 265.92544439 -253.66296839 261.71554884 -253.66415405 257.50555801 C-253.66459591 256.78840622 -253.66503777 256.07125443 -253.66549301 255.33237076 C-253.67243459 233.85265288 -253.3997857 212.63327349 -250.41415405 191.31805801 C-250.23502298 189.98901301 -250.05632561 188.65990949 -249.87802124 187.33075333 C-245.81401581 157.40883305 -240.95374301 127.08707284 -226.41415405 100.31805801 C-225.59817749 98.77891739 -225.59817749 98.77891739 -224.76571655 97.20868301 C-217.29031399 83.71649302 -207.4622158 71.76033947 -196.76327515 60.71405411 C-195.54666068 59.45516856 -194.34836607 58.17864047 -193.1524353 56.90008926 C-170.24546708 32.97691543 -140.58720361 18.16238506 -108.53915405 11.25555801 C-107.77734833 11.08852371 -107.0155426 10.92148941 -106.23065186 10.74939346 C-94.6253594 8.21783618 -82.98357064 6.13098144 -71.22665405 4.44305801 C-70.55853699 4.34564316 -69.89041992 4.2482283 -69.20205688 4.14786148 C-46.21087322 0.84801317 -23.20467134 -0.06283861 0 0 Z " fill="#E4F3D8" transform="translate(253.41415405273438,-0.3180580139160156)"/>
<path d="M0 0 C1.2684375 1.051875 1.2684375 1.051875 2.5625 2.125 C3.33335937 2.69605469 4.10421875 3.26710938 4.8984375 3.85546875 C7.9578808 6.46182734 10.33125195 9.38079115 12.75 12.5625 C13.46555054 13.4911084 13.46555054 13.4911084 14.19555664 14.43847656 C15.18009636 15.71689658 16.16243828 16.99701217 17.14257812 18.27880859 C18.43962286 19.96523436 19.75372687 21.63580856 21.078125 23.30078125 C56.82334378 68.67414767 56.82334378 68.67414767 54.5625 90.125 C52.5061836 96.78794128 49.0104485 101.40361584 44 106.125 C43.38737305 106.72094971 42.77474609 107.31689941 42.14355469 107.9309082 C37.53563585 112.35649501 32.72598434 116.44526285 27.671875 120.35546875 C25.3566602 122.12939525 25.3566602 122.12939525 23.5625 125.125 C23.15380342 131.90623949 25.81130303 138.11513424 28.5 144.1875 C28.90114014 145.10217041 29.30228027 146.01684082 29.71557617 146.95922852 C36.23333014 161.42447803 44.84365526 173.49391315 55.5625 185.125 C56.29984375 185.94484375 57.0371875 186.7646875 57.796875 187.609375 C70.6228479 201.20683499 87.51303038 210.82313886 104.5 218.25 C105.17337402 218.55776367 105.84674805 218.86552734 106.54052734 219.18261719 C111.64833805 221.30407211 116.21480373 221.79267809 121.5625 220.125 C124.48443673 217.9897445 124.48443673 217.9897445 126.6875 215.0625 C127.52152344 214.06605469 128.35554687 213.06960938 129.21484375 212.04296875 C129.98957031 211.08003906 130.76429688 210.11710938 131.5625 209.125 C132.78412219 207.70182244 134.01237664 206.28428477 135.25 204.875 C135.80171875 204.2459375 136.3534375 203.616875 136.921875 202.96875 C143.413739 195.67313141 148.88205259 190.15385083 159.0625 189.4375 C167.3394115 189.7494439 174.33941316 193.41351883 181.5625 197.125 C182.20703125 197.45145508 182.8515625 197.77791016 183.515625 198.11425781 C205.55843163 209.43807768 235.40027431 227.4582214 247.875 249.4375 C249.77356871 256.8591777 248.95202292 262.9061785 245.21875 269.57421875 C236.64348812 282.78093104 224.55366026 294.28550142 212.25 303.99609375 C209.4156103 306.24135885 206.68252994 308.58408438 203.9375 310.9375 C171.80679554 337.6645931 171.80679554 337.6645931 155.19921875 336.5859375 C148.24041449 335.70394083 141.42103487 334.58127407 134.5625 333.125 C133.75925293 332.95871094 132.95600586 332.79242188 132.12841797 332.62109375 C111.44340455 328.27059434 91.57148577 321.35665451 72.5625 312.125 C71.62180664 311.6702832 70.68111328 311.21556641 69.71191406 310.74707031 C48.72533435 300.49249356 29.54559866 288.01716825 11.5625 273.125 C10.73758057 272.45235107 10.73758057 272.45235107 9.89599609 271.76611328 C-4.19003903 260.25001953 -17.26626826 247.49959764 -28.4375 233.125 C-29.34953972 232.02198193 -30.2651383 230.92190035 -31.18359375 229.82421875 C-50.32254999 206.78115511 -64.50980762 180.41477085 -75.44213867 152.62207031 C-76.08525574 151.00867777 -76.74822404 149.40299447 -77.43481445 147.80761719 C-80.58563468 140.37996863 -82.57220591 132.6887345 -84.5 124.875 C-84.67425507 124.17511963 -84.84851013 123.47523926 -85.02804565 122.75415039 C-87.25177554 113.76862827 -89.2288538 104.80291613 -90.5 95.625 C-90.62060791 94.76745117 -90.74121582 93.90990234 -90.86547852 93.02636719 C-91.87307083 84.70851317 -91.09315536 78.17984194 -86.75 70.8125 C-86.16484619 69.79869263 -86.16484619 69.79869263 -85.56787109 68.7644043 C-74.43308937 50.01097548 -59.99745324 33.31003288 -44.62133789 17.93823242 C-42.86208424 16.17455174 -41.11955415 14.3953526 -39.37695312 12.61523438 C-28.04477466 1.16924493 -16.40621157 -8.94884267 0 0 Z " fill="#35C122" transform="translate(177.4375,89.875)"/>
</svg>
