<?xml version="1.0" encoding="UTF-8"?>
<svg version="1.1" xmlns="http://www.w3.org/2000/svg" width="512" height="512">
<path d="M0 0 C2.1198433 0.0056486 4.23967858 0.00846379 6.35952759 0.0110817 C26.90876038 0.04796487 47.20245193 0.45946186 67.58584595 3.31805801 C68.90952917 3.49711854 70.23326122 3.67581845 71.55703735 3.85419083 C122.10618129 10.7519002 161.99715664 22.87437544 199.58584595 58.31805801 C200.36959595 59.04766739 201.15334595 59.77727676 201.96084595 60.52899551 C246.20161285 103.03173229 256.87271381 167.97321338 258.693573 226.79831314 C258.74930531 230.49916141 258.77664528 234.19884115 258.78897095 237.90008926 C258.79179832 238.57637564 258.7946257 239.25266201 258.79753876 239.94944191 C258.81241841 243.54603185 258.82171203 247.14258302 258.82608032 250.73920059 C258.83041279 253.63288723 258.84411448 256.52626689 258.86709595 259.41986465 C259.07109196 285.67523071 257.56872945 311.62284962 253.27334595 337.56805801 C253.06387329 338.86541885 252.85440063 340.16277969 252.63858032 341.4994545 C245.28859483 386.25892924 231.90547881 420.10300068 200.58584595 453.31805801 C199.85623657 454.10180801 199.1266272 454.88555801 198.37490845 455.69305801 C155.57595956 500.24214979 90.27638402 510.59645208 31.10108948 512.42578506 C27.52674671 512.4810209 23.95355962 512.5083338 20.3788147 512.52118301 C19.06685623 512.52819733 17.75489777 512.53521164 16.40318298 512.54243851 C12.19323232 512.56183151 7.98333677 512.56687235 3.77334595 512.56805801 C3.05619415 512.56849987 2.33904236 512.56894173 1.60015869 512.56939697 C-19.88157172 512.5763392 -41.09596572 512.29262146 -62.41415405 509.31805801 C-63.70869507 509.14645157 -65.00323608 508.97484512 -66.33700562 508.79803848 C-123.55513301 501.15002596 -173.89688934 484.10638108 -210.45516968 436.68744278 C-245.09649875 390.67863511 -253.41426233 330.59176764 -253.61727905 274.11102676 C-253.62780052 272.14308907 -253.62780052 272.14308907 -253.63853455 270.13539505 C-253.65792755 265.92544439 -253.66296839 261.71554884 -253.66415405 257.50555801 C-253.66459591 256.78840622 -253.66503777 256.07125443 -253.66549301 255.33237076 C-253.67243459 233.85265288 -253.3997857 212.63327349 -250.41415405 191.31805801 C-250.23502298 189.98901301 -250.05632561 188.65990949 -249.87802124 187.33075333 C-245.81401581 157.40883305 -240.95374301 127.08707284 -226.41415405 100.31805801 C-225.59817749 98.77891739 -225.59817749 98.77891739 -224.76571655 97.20868301 C-217.29031399 83.71649302 -207.4622158 71.76033947 -196.76327515 60.71405411 C-195.54666068 59.45516856 -194.34836607 58.17864047 -193.1524353 56.90008926 C-170.24546708 32.97691543 -140.58720361 18.16238506 -108.53915405 11.25555801 C-107.77734833 11.08852371 -107.0155426 10.92148941 -106.23065186 10.74939346 C-94.6253594 8.21783618 -82.98357064 6.13098144 -71.22665405 4.44305801 C-70.55853699 4.34564316 -69.89041992 4.2482283 -69.20205688 4.14786148 C-46.21087322 0.84801317 -23.20467134 -0.06283861 0 0 Z " fill="#E4F3D8" transform="translate(253.41415405273438,-0.3180580139160156)"/>
<path d="M0 0 C7.76916546 5.20139043 14.01484949 11.88252371 20 19 C20.70511719 19.83015625 21.41023438 20.6603125 22.13671875 21.515625 C31.29403555 32.49782899 39.83497395 43.90506097 47.5625 55.9375 C48.06305908 56.70578125 48.56361816 57.4740625 49.0793457 58.265625 C53.94893762 65.99688455 56.5766159 73.25691273 56.4375 82.4375 C56.42630127 83.1797583 56.41510254 83.9220166 56.40356445 84.68676758 C55.90006122 99.6044765 45.96101812 110.36330891 35.625 120.3125 C29.79370393 126.01379902 25.84445197 131.08125485 25.375 139.4375 C26.8869521 164.9297157 64.17397914 196.35591899 82.14746094 212.390625 C86.70691255 216.35160352 91.47155246 220.04203806 96.28271484 223.68994141 C98.0411833 225.03141734 99.78183956 226.39346138 101.51953125 227.76171875 C102.65874863 228.65378063 103.79806767 229.5457127 104.9375 230.4375 C105.93652344 231.21996094 106.93554688 232.00242187 107.96484375 232.80859375 C115.54048041 238.27826192 121.51348295 241.05099182 131.03125 239.71484375 C138.45391373 237.89951838 143.29682859 232.55906305 148.58056641 227.38378906 C159.20490614 217.02624562 169.1882128 209.14542721 184.5625 208.625 C210.90725447 209.66394806 238.8289019 237.67522701 257 255 C257.73476563 255.6703125 258.46953125 256.340625 259.2265625 257.03125 C264.58453762 262.04722671 268.59890181 268.31175398 269.23828125 275.78515625 C269.63466975 293.28883798 259.44880791 305.71723629 247.96655273 318.00756836 C235.69938144 330.74763857 219.45113714 336.77917931 201.8984375 337.16796875 C191.43506655 337.25559536 181.29083068 337.09566756 171 335 C170.26056152 334.8546582 169.52112305 334.70931641 168.75927734 334.55957031 C148.85921574 330.56120221 129.79850275 323.61037471 111.9140625 314.01806641 C109.90305455 312.9484359 107.87592837 311.91550905 105.84375 310.88671875 C82.33371786 298.88153872 59.87953108 283.18691234 40.4765625 265.265625 C39.13019676 264.03393394 37.77638276 262.80945983 36.38745117 261.62597656 C30.227017 256.36653911 24.50618153 250.69230065 18.7824707 244.96777344 C17.07456944 243.26205402 15.35881955 241.56450973 13.64257812 239.8671875 C6.972733 233.23133008 0.84537276 226.38605398 -5 219 C-6.04761877 217.75164825 -7.10040263 216.50759807 -8.16015625 215.26953125 C-21.67426615 199.27248998 -33.31022085 181.5588977 -43 163 C-43.42587402 162.19981445 -43.85174805 161.39962891 -44.29052734 160.57519531 C-62.63721465 125.96297629 -78.98228985 82.55715983 -67.42822266 43.18847656 C-61.42895787 24.3010212 -45.76386747 10.68041941 -29 1 C-19.24189166 -3.82517504 -10.05768468 -4.67176478 0 0 Z " fill="#46C733" transform="translate(157,89)"/>
</svg>
