<?xml version="1.0" encoding="UTF-8"?>
<svg version="1.1" xmlns="http://www.w3.org/2000/svg" width="512" height="512">
<path d="M0 0 C2.1198433 0.0056486 4.23967858 0.00846379 6.35952759 0.0110817 C26.90876038 0.04796487 47.20245193 0.45946186 67.58584595 3.31805801 C68.90952917 3.49711854 70.23326122 3.67581845 71.55703735 3.85419083 C122.10618129 10.7519002 161.99715664 22.87437544 199.58584595 58.31805801 C200.36959595 59.04766739 201.15334595 59.77727676 201.96084595 60.52899551 C246.19883912 103.02906752 256.84870369 167.9342227 258.693573 226.75262833 C258.74923277 230.38406243 258.77619891 234.01434543 258.78897095 237.64618301 C258.7959901 238.99528919 258.80307694 240.34439502 258.81022644 241.69350052 C258.82964723 245.98502447 258.83466064 250.27649456 258.83584595 254.56805801 C258.8362878 255.29847683 258.83672966 256.02889565 258.83718491 256.78144836 C258.84405892 278.43307824 258.6123646 299.83387337 255.58584595 321.31805801 C255.40668871 322.64026324 255.22799231 323.96253098 255.04971313 325.28485489 C248.15126233 375.83603876 236.03132874 415.72745954 200.58584595 453.31805801 C199.85623657 454.10180801 199.1266272 454.88555801 198.37490845 455.69305801 C155.57595956 500.24214979 90.27638402 510.59645208 31.10108948 512.42578506 C27.52674671 512.4810209 23.95355962 512.5083338 20.3788147 512.52118301 C19.06685623 512.52819733 17.75489777 512.53521164 16.40318298 512.54243851 C12.19323232 512.56183151 7.98333677 512.56687235 3.77334595 512.56805801 C3.05619415 512.56849987 2.33904236 512.56894173 1.60015869 512.56939697 C-19.88157172 512.5763392 -41.09596572 512.29262146 -62.41415405 509.31805801 C-63.70869507 509.14645157 -65.00323608 508.97484512 -66.33700562 508.79803848 C-123.55513301 501.15002596 -173.89688934 484.10638108 -210.45516968 436.68744278 C-245.09649875 390.67863511 -253.41426233 330.59176764 -253.61727905 274.11102676 C-253.62780052 272.14308907 -253.62780052 272.14308907 -253.63853455 270.13539505 C-253.65792755 265.92544439 -253.66296839 261.71554884 -253.66415405 257.50555801 C-253.66459591 256.78840622 -253.66503777 256.07125443 -253.66549301 255.33237076 C-253.67243459 233.85265288 -253.3997857 212.63327349 -250.41415405 191.31805801 C-250.23502298 189.98901301 -250.05632561 188.65990949 -249.87802124 187.33075333 C-245.81401581 157.40883305 -240.95374301 127.08707284 -226.41415405 100.31805801 C-225.59817749 98.77891739 -225.59817749 98.77891739 -224.76571655 97.20868301 C-217.29031399 83.71649302 -207.4622158 71.76033947 -196.76327515 60.71405411 C-195.54666068 59.45516856 -194.34836607 58.17864047 -193.1524353 56.90008926 C-170.24546708 32.97691543 -140.58720361 18.16238506 -108.53915405 11.25555801 C-107.77734833 11.08852371 -107.0155426 10.92148941 -106.23065186 10.74939346 C-94.6253594 8.21783618 -82.98357064 6.13098144 -71.22665405 4.44305801 C-70.55853699 4.34564316 -69.89041992 4.2482283 -69.20205688 4.14786148 C-46.21087322 0.84801317 -23.20467134 -0.06283861 0 0 Z " fill="#FEE4E4" transform="translate(253.41415405273438,-0.3180580139160156)"/>
<path d="M0 0 C8.08088592 5.27605243 14.95957764 12.14066864 21.27050781 19.38671875 C29.20924831 28.4759184 38.47397467 34.86452984 50.77441406 36.03466797 C52.05026367 36.08252441 53.32611328 36.13038086 54.640625 36.1796875 C56.07163781 36.24559131 57.5026268 36.31201414 58.93359375 36.37890625 C61.14908026 36.47319267 63.36447978 36.56212503 65.58056641 36.64111328 C81.46503927 37.23283913 92.76771642 40.65063497 103.875 52.5 C109.67874235 59.41050252 113.09632388 67.14201129 113.5546875 76.12109375 C113.66490234 78.0556543 113.66490234 78.0556543 113.77734375 80.02929688 C113.92615488 82.72432444 114.06462529 85.41940664 114.19921875 88.11523438 C115.17216154 104.76245046 118.41738765 117.95937818 131.00390625 129.39453125 C132.31756087 130.52772423 133.63272035 131.65917456 134.94921875 132.7890625 C144.15605259 140.82231429 153.29141535 149.72548022 154.36328125 162.53515625 C154.66011652 175.39281041 150.95642369 184.2751291 142.31347656 193.65307617 C140.42100228 195.58708658 138.50094258 197.48710858 136.5625 199.375 C135.91603516 200.01244141 135.26957031 200.64988281 134.60351562 201.30664062 C131.86312081 204.00800642 129.11312195 206.69905974 126.35546875 209.3828125 C124.34055122 211.46477632 122.63735732 213.49054249 121 215.875 C120.52304687 216.54917969 120.04609375 217.22335937 119.5546875 217.91796875 C114.53857736 227.63496899 114.69139271 237.36465999 114.68554688 248.08007812 C114.46119615 262.19870158 110.84235894 273.67865808 100.953125 283.94140625 C96.40217049 288.20204125 91.86906466 291.29096971 86.125 293.6875 C85.279375 294.079375 84.43375 294.47125 83.5625 294.875 C78.51220722 296.55843093 73.46018976 296.75018199 68.17578125 296.86328125 C67.07943359 296.88712891 65.98308594 296.91097656 64.85351562 296.93554688 C62.59588869 296.97814361 60.33802092 297.00959406 58.08007812 297.02929688 C43.19153344 297.40346837 33.37291689 302.23807912 23.125 312.6875 C21.8627121 314.01899191 20.60104718 315.35107457 19.33984375 316.68359375 C9.00602684 327.48433268 -0.26370621 336.63977159 -16 337 C-30.39730715 336.8389563 -39.30276198 328.49086588 -48.99536133 318.74707031 C-51.46712517 316.2190408 -53.79147549 313.63412619 -56 310.875 C-62.75197941 302.85702445 -72.94933237 298.39993712 -83.26171875 297.33911133 C-87.96536115 297.17516225 -92.65936652 297.18369637 -97.36523438 297.19921875 C-111.45443336 297.02806338 -122.89226593 293.37970128 -133.12890625 283.515625 C-144.95829989 270.88017691 -146.3050001 256.4073223 -146.31445312 239.66601562 C-146.54703075 225.6231392 -151.53452306 215.02354257 -161.3125 205 C-163.72770445 202.68183501 -166.24974199 200.52731629 -168.8125 198.375 C-176.35002705 191.84735522 -184.62216734 182.7860391 -185.44140625 172.390625 C-185.46877096 170.90650169 -185.46674152 169.42158752 -185.4375 167.9375 C-185.42799316 167.1539917 -185.41848633 166.3704834 -185.40869141 165.56323242 C-185.04604465 155.34728463 -181.32361829 146.73015094 -173.875 139.6875 C-171.98857378 137.9963646 -170.07511789 136.34108003 -168.15234375 134.69140625 C-157.59750815 125.4038751 -148.04366527 115.89552652 -146.51196289 101.20581055 C-146.4577417 100.00738525 -146.40352051 98.80895996 -146.34765625 97.57421875 C-146.27689339 96.22980713 -146.2059233 94.88540641 -146.13476562 93.54101562 C-146.03429793 91.46150542 -145.93780519 89.38191042 -145.84594727 87.30200195 C-145.32877181 75.97921783 -144.49877765 62.36693965 -136.015625 53.8125 C-134.63732963 52.61037773 -133.23734396 51.4326544 -131.81640625 50.28125 C-129.68729843 48.60585571 -129.68729843 48.60585571 -127.375 46 C-117.53031373 36.8936652 -104.13013846 37.21725551 -91.51000977 36.73388672 C-70.70186672 35.90185993 -60.33848091 27.52523662 -46.35083008 13.19604492 C-34.02475995 0.59674181 -17.79371752 -8.90977147 0 0 Z " fill="#F24749" transform="translate(271.875,89.3125)"/>
<path d="M0 0 C3.80998416 2.36818028 6.99807138 5.13536302 10.13671875 8.328125 C10.69359375 8.8746875 11.25046875 9.42125 11.82421875 9.984375 C19.20408537 17.80703362 20.71475013 26.20930035 20.61376953 36.63500977 C20.23266747 46.9086169 16.78528129 55.16305551 9.88671875 62.828125 C0.67176751 71.2053534 -6.96359354 75.02650102 -19.65625 74.671875 C-29.21308932 73.6475122 -37.4411747 68.53813472 -43.6171875 61.26171875 C-51.23846026 50.58429652 -53.53562688 39.20768237 -51.86328125 26.328125 C-49.47878375 16.33157777 -43.50409555 8.33628683 -35.1640625 2.41015625 C-24.86554964 -3.91929472 -11.19033611 -5.39567989 0 0 Z " fill="#FEDFDF" transform="translate(320.86328125,259.671875)"/>
<path d="M0 0 C9.9355243 6.06899021 16.30834111 14.26558766 19.37890625 25.453125 C20.75960631 37.83836946 19.56988303 48.98107128 12.12890625 59.265625 C5.35790708 67.31606988 -2.89022431 72.78884987 -13.5 73.8359375 C-21.20232001 74.16955965 -27.99874414 73.73973607 -34.62109375 69.453125 C-35.31589844 69.00582031 -36.01070312 68.55851562 -36.7265625 68.09765625 C-44.56723641 62.61065556 -50.50954184 55.97260764 -52.62109375 46.453125 C-54.28136111 33.92324886 -52.88668842 23.92942055 -45.62109375 13.453125 C-34.96360974 -0.19284938 -16.47649784 -7.70893804 0 0 Z " fill="#FEFCFC" transform="translate(223.62109375,180.546875)"/>
<path d="M0 0 C3.55041913 0.77288035 5.17962631 2.48279678 7.25 5.390625 C9.18562621 9.29076737 9.36059043 12.28502761 8.296875 16.5 C6.40236403 20.77580601 3.8611888 24.60477617 1.296875 28.5 C0.32826384 30.00315731 -0.63909978 31.50711897 -1.60546875 33.01171875 C-4.37445589 37.30705068 -7.17029044 41.58430229 -9.97265625 45.85791016 C-12.76890129 50.1272335 -15.54817487 54.40755587 -18.328125 58.6875 C-18.86759766 59.51741455 -19.40707031 60.3473291 -19.96289062 61.20239258 C-24.33208239 67.92458166 -28.69034591 74.65379214 -33.04296875 81.38671875 C-34.78297589 84.07824274 -36.52516684 86.76832926 -38.26953125 89.45703125 C-43.10991257 96.92110274 -47.92607963 104.40023368 -52.72070312 111.89379883 C-54.11814445 114.07786752 -55.51657149 116.26130586 -56.91601562 118.4440918 C-59.81740866 122.97211836 -62.71450006 127.50115164 -65.55078125 132.0703125 C-65.95603027 132.71782471 -66.3612793 133.36533691 -66.77880859 134.0324707 C-67.79512413 135.65960215 -68.80233826 137.2924093 -69.80859375 138.92578125 C-71.85696521 141.70903237 -73.84457139 143.56574211 -76.703125 145.5 C-81.03644275 146.13030076 -83.13097022 145.80227045 -87.015625 143.75 C-90.06243834 141.19917953 -91.38138485 139.34689754 -92.06323242 135.43286133 C-92.23221536 129.11489583 -90.49478407 125.3631183 -87.015625 120.1875 C-86.52304199 119.41970215 -86.03045898 118.6519043 -85.52294922 117.86083984 C-83.93477198 115.39471066 -82.31940222 112.94778079 -80.703125 110.5 C-79.6450829 108.86460733 -78.58909078 107.22788657 -77.53515625 105.58984375 C-74.82536911 101.38761987 -72.09202737 97.20130758 -69.3515625 93.01904297 C-66.66627555 88.91554908 -63.99825949 84.80086218 -61.328125 80.6875 C-56.6275244 73.45328282 -51.91718531 66.22545213 -47.203125 59 C-42.44817092 51.71154886 -37.69660996 44.42092149 -32.953125 37.125 C-32.16023071 35.90635254 -32.16023071 35.90635254 -31.35131836 34.66308594 C-28.77598354 30.70201566 -26.20955477 26.7356325 -23.66015625 22.7578125 C-23.17192383 21.99774902 -22.68369141 21.23768555 -22.18066406 20.45458984 C-21.27765979 19.04773537 -20.37702109 17.63935779 -19.47949219 16.22900391 C-8.90433725 -0.23279313 -8.90433725 -0.23279313 0 0 Z " fill="#FEF8F8" transform="translate(299.703125,179.5)"/>
<path d="M0 0 C4.75686979 2.47357229 7.63429331 5.17759789 10 10 C10.9599635 15.91078648 9.97482594 20.76840956 7 26 C3.87945476 28.89221266 1.5099211 30.82841806 -2.75 31.3125 C-8.03305116 30.80451431 -10.84850586 28.24240157 -14.375 24.4375 C-16.67768515 19.56643525 -16.77379561 15.29813119 -16 10 C-12.89153302 3.42439677 -7.55413523 -1.25902254 0 0 Z " fill="#EF3A3C" transform="translate(308,280)"/>
<path d="M0 0 C0.85464844 -0.00515625 1.70929688 -0.0103125 2.58984375 -0.015625 C5.25250816 0.27041162 6.81922359 0.80411949 9.0625 2.25 C12.93184921 7.5166142 14.02353782 11.76002852 13.0625 18.25 C11.28495414 23.38513248 8.65870532 26.35609295 4.0625 29.25 C-0.25114564 30.05643111 -3.76421337 29.73461839 -7.8125 28.0625 C-11.05241731 25.29904112 -12.71515923 22.60998439 -13.40625 18.3828125 C-13.48032186 11.25339625 -12.85635123 7.51202689 -7.9375 2.25 C-4.71002945 0.09835297 -3.73244361 -0.02245079 0 0 Z " fill="#F45556" transform="translate(206.9375,201.75)"/>
</svg>
